<svg width="64" height="64" viewBox="0 0 64 64" fill="none" xmlns="http://www.w3.org/2000/svg">
<path fill-rule="evenodd" clip-rule="evenodd" d="M19.5783 13.2933C20.7037 11.3627 21.2663 10.4 22.0503 9.69867C22.7438 9.07787 23.5595 8.60915 24.445 8.32267C25.445 8 26.5597 8 28.7917 8H35.205C37.4397 8 38.5543 8 39.5543 8.32267C40.4399 8.60915 41.2556 9.07787 41.949 9.69867C42.733 10.4 43.2957 11.3627 44.421 13.2933L45.9997 16H47.9997C51.733 16 53.5997 16 55.0263 16.7253C56.2804 17.3651 57.2998 18.3853 57.9383 19.64C58.6663 21.0667 58.6663 22.9333 58.6663 26.6667V42.6667C58.6663 46.4 58.6663 48.2667 57.9383 49.6933C57.2993 50.947 56.28 51.9663 55.0263 52.6053C53.5997 53.3333 51.733 53.3333 47.9997 53.3333H15.9997C12.2663 53.3333 10.3997 53.3333 8.97301 52.6053C7.71836 51.9668 6.69806 50.9474 6.05834 49.6933C5.33301 48.2667 5.33301 46.4 5.33301 42.6667V26.6667C5.33301 22.9333 5.33301 21.0667 6.05834 19.64C6.69761 18.3849 7.71795 17.3646 8.97301 16.7253C10.3997 16 12.2663 16 15.9997 16H17.9997L19.5783 13.2933ZM31.9997 44.9733C35.3591 44.9733 38.5809 43.6388 40.9564 41.2633C43.3318 38.8879 44.6663 35.6661 44.6663 32.3067C44.6663 28.9473 43.3318 25.7254 40.9564 23.35C38.5809 20.9745 35.3591 19.64 31.9997 19.64C28.6403 19.64 25.4184 20.9745 23.043 23.35C20.6675 25.7254 19.333 28.9473 19.333 32.3067C19.333 35.6661 20.6675 38.8879 23.043 41.2633C25.4184 43.6388 28.6403 44.9733 31.9997 44.9733ZM39.1997 32.8C39.1997 34.7096 38.4411 36.5409 37.0908 37.8912C35.7406 39.2414 33.9092 40 31.9997 40C30.0901 40 28.2588 39.2414 26.9085 37.8912C25.5582 36.5409 24.7997 34.7096 24.7997 32.8C24.7997 30.8904 25.5582 29.0591 26.9085 27.7088C28.2588 26.3586 30.0901 25.6 31.9997 25.6C33.9092 25.6 35.7406 26.3586 37.0908 27.7088C38.4411 29.0591 39.1997 30.8904 39.1997 32.8Z" fill="white"/>
</svg>
